<svg version="1.0" xmlns="http://www.w3.org/2000/svg" width="933.333" height="933.333" viewBox="0 0 700 700"><path d="M108.8 37.7c-10.3 1.6-16.9 3.8-26.5 8.8-23 11.9-39.4 34.2-44.4 60-1.1 5.7-1.3 49.6-1.3 244.5.1 260.6-.3 242.7 5.9 258.6 2.8 7 11.2 20.4 16.2 25.9 12 13.1 30 23.2 47.6 26.6 9.1 1.8 474 2 484.7.2 14.6-2.4 23.8-6 35.7-14.1 18.4-12.5 32.8-35.5 35.9-57.3.4-3 .8-110.9.8-239.7.1-177-.2-236.4-1.1-242.7-2.4-16.8-11.7-34.8-24.5-47.2-9.7-9.5-16.6-14.1-28.2-18.7-15.7-6.3 2-5.9-257.3-6-177-.1-238.1.2-243.5 1.1zm72.9 43.6c.8 1.4.8 99.5 0 100.4-.5.4-90.1.8-99.8.4-1.5-.1-1.6-3.2-1.6-31.6 0-17.3.3-33.6.7-36.2C83.5 99 96.8 85 112.5 81.5c6.7-1.6 68.3-1.7 69.2-.2zM474 350v269.7H226V80.3h248V350zM586.1 81.2c12.9 2.4 23.7 10.9 29.7 23.6l3.7 7.7.1 34.7c.1 19.2-.1 34.8-.5 34.9-5.3.4-100.3 0-100.8-.4-.5-.5-.8-91.4-.4-99.8.1-1.4 3.4-1.6 31.5-1.6 17.3-.1 33.8.4 36.7.9zm-404 147c.1 3 .1 98.1 0 99.1-.1.4-22.9.6-50.8.5l-50.8-.3-.1-50.8-.1-50.7H182l.1 2.2zm437.6 48.3c0 30.4-.3 50.8-.9 51.1-1.1.7-99.4.8-100.5.1-.6-.4-.9-88.6-.4-100 .1-1.6 3.2-1.7 50.9-1.7h50.9v50.5zm-1.6 95.8c1.4.4 1.6 5.3 1.6 51.1V474h-50.8c-47.8 0-50.9-.1-51-1.8-.1-2.2-.1-98.5 0-99.4.2-1.3 95.6-1.7 100.2-.5zM182.3 422c-.1 27.2-.2 50.1-.2 50.7-.1 1-11 1.3-50.9 1.3H80.3V372l51 .2 51 .3V422zm-1.8 95.9c2 .1 2 .7 1.8 48.8-.1 26.9-.2 49.8-.2 50.9-.1 2.2-.1 2.2-32.3 2.1-20.8 0-34.1-.4-37.3-1.2-13.9-3.2-24.6-12.8-30-27-1.8-4.5-2-8.1-2.1-39-.1-18.7-.1-34.2.1-34.5.2-.4 89.8-.4 100-.1zm436.6 0 2.6.1.1 31.7c0 17.5-.5 34-1 36.8-2.8 13.6-12.2 24.7-25.8 30.5-5.4 2.3-6.3 2.4-40.2 2.6l-34.8.2-.1-3.1c-.1-4.1-.1-94.7 0-96.9.1-.9.9-1.8 1.8-2 1.3-.2 87.5-.1 97.4.1z"/><path d="M276.2 198.3c-4.9 1.8-11 8.3-12.5 13.3-.9 3.3-1.2 36.4-1.2 150.6l.1 146.3 2.2 4.1c2.4 4.8 6.9 8.8 11.9 10.9 11.3 4.7 26.7-3.5 28.9-15.4.4-2 .7-33.2.7-69.4 0-37.7.4-66 .9-66.3.5-.3 26-.6 56.7-.6 53.5.1 55.9 0 60.2-1.9 8.7-4 13.1-10.6 13.1-19.9 0-8.8-4-15.3-12.2-19.6-3.3-1.8-6.9-1.9-57.5-2.1-29.7-.1-55.6-.3-57.6-.3h-3.6l.1-43.7.1-43.7 64.5-.1c45.2-.1 65.3-.5 67.1-1.2 4.3-1.9 10.1-7.5 12-11.8 5.1-11.1-1.3-25.9-12.7-29.3-5.8-1.7-156.4-1.6-161.2.1z"/></svg>