<?xml version="1.0" standalone="no"?>
<!DOCTYPE svg PUBLIC "-//W3C//DTD SVG 20010904//EN"
 "http://www.w3.org/TR/2001/REC-SVG-20010904/DTD/svg10.dtd">
<svg version="1.0" xmlns="http://www.w3.org/2000/svg"
 width="700.000000pt" height="700.000000pt" viewBox="0 0 700.000000 700.000000"
 preserveAspectRatio="xMidYMid meet">
<metadata>
Created by potrace 1.14, written by Peter Selinger 2001-2017
</metadata>
<g transform="translate(0.000000,700.000000) scale(0.100000,-0.100000)"
fill="#000000" stroke="none">
<path d="M1088 6623 c-103 -16 -169 -38 -265 -88 -230 -119 -394 -342 -444
-600 -11 -57 -13 -496 -13 -2445 1 -2606 -3 -2427 59 -2586 28 -70 112 -204
162 -259 120 -131 300 -232 476 -266 91 -18 4740 -20 4847 -2 146 24 238 60
357 141 184 125 328 355 359 573 4 30 8 1109 8 2397 1 1770 -2 2364 -11 2427
-24 168 -117 348 -245 472 -97 95 -166 141 -282 187 -157 63 20 59 -2573 60
-1770 1 -2381 -2 -2435 -11z m729 -436 c8 -14 8 -995 0 -1004 -5 -4 -901 -8
-998 -4 -15 1 -16 32 -16 316 0 173 3 336 7 362 25 153 158 293 315 328 67 16
683 17 692 2z m2923 -2687 l0 -2697 -1240 0 -1240 0 0 2697 0 2697 1240 0
1240 0 0 -2697z m1121 2688 c129 -24 237 -109 297 -236 l37 -77 1 -347 c1
-192 -1 -348 -5 -349 -53 -4 -1003 0 -1008 4 -5 5 -8 914 -4 998 1 14 34 16
315 16 173 1 338 -4 367 -9z m-4040 -1470 c1 -30 1 -981 0 -991 -1 -4 -229 -6
-508 -5 l-508 3 -1 508 -1 507 508 0 509 0 1 -22z m4376 -483 c0 -304 -3 -508
-9 -511 -11 -7 -994 -8 -1005 -1 -6 4 -9 886 -4 1000 1 16 32 17 509 17 l509
0 0 -505z m-16 -958 c14 -4 16 -53 16 -511 l0 -506 -508 0 c-478 0 -509 1
-510 18 -1 22 -1 985 0 994 2 13 956 17 1002 5z m-4358 -497 c-1 -272 -2 -501
-2 -507 -1 -10 -110 -13 -509 -13 l-509 0 0 510 0 510 510 -2 510 -3 0 -495z
m-18 -959 c20 -1 20 -7 18 -488 -1 -269 -2 -498 -2 -509 -1 -22 -1 -22 -323
-21 -208 0 -341 4 -373 12 -139 32 -246 128 -300 270 -18 45 -20 81 -21 390
-1 187 -1 342 1 345 2 4 898 4 1000 1z m4366 0 l26 -1 1 -317 c0 -175 -5 -340
-10 -368 -28 -136 -122 -247 -258 -305 -54 -23 -63 -24 -402 -26 l-348 -2 -1
31 c-1 41 -1 947 0 969 1 9 9 18 18 20 13 2 875 1 974 -1z"/>
<path d="M2762 5017 c-49 -18 -110 -83 -125 -133 -9 -33 -12 -364 -12 -1506
l1 -1463 22 -41 c24 -48 69 -88 119 -109 113 -47 267 35 289 154 4 20 7 332 7
694 0 377 4 660 9 663 5 3 260 6 567 6 535 -1 559 0 602 19 87 40 131 106 131
199 0 88 -40 153 -122 196 -33 18 -69 19 -575 21 -297 1 -556 3 -576 3 l-36 0
1 437 1 437 645 1 c452 1 653 5 671 12 43 19 101 75 120 118 51 111 -13 259
-127 293 -58 17 -1564 16 -1612 -1z"/>
</g>
</svg>
